  <svg width="60px" height="51px" viewBox="0 0 60 51" version="1.1">
    <defs></defs>
    <g id="Page-1" stroke="none" strokeWidth="1" fill="none" fillRule="evenodd">
      <g id="noun_Castle_1153283" fill="#000" fillRule="nonzero">
        <path d="M58,-4.4408921e-16 L48,-4.4408921e-16 C46.8959536,0.00126196688 46.001262,0.895953647 46,2 L46,6 C46.0039027,7.26714177 46.8048218,8.39470371 48,8.81567 L48,16 L38,16 L38,8.81573 C39.1951838,8.39473632 39.9960988,7.26715617 40,6 L40,1 C40.000069,0.734762367 39.8947343,0.480368368 39.707183,0.292817033 C39.5196316,0.105265697 39.2652376,-6.89886937e-05 39,-2.22044605e-15 L21,-2.22044605e-15 C20.7347624,-6.89886937e-05 20.4803684,0.105265697 20.292817,0.292817033 C20.1052657,0.480368368 19.999931,0.734762367 20,1 L20,6 C20.0039027,7.26714177 20.8048218,8.39470371 22,8.81567 L22,16 L12,16 L12,8.81573 C13.1951838,8.39473632 13.9960988,7.26715617 14,6 L14,2 C13.998738,0.895953647 13.1040464,0.00126196688 12,-4.4408921e-16 L2,-4.4408921e-16 C0.895953647,0.00126196688 0.00126196688,0.895953647 7.77156117e-16,2 L7.77156117e-16,6 C0.00390272285,7.26714177 0.804821817,8.39470371 2,8.81567 L2,34.579 C1.90938591,34.6455781 1.82295893,34.7176746 1.74121,34.79488 L0.28121,36.30465 C-0.102801854,36.7016047 -0.0923096388,37.3347031 0.304645018,37.718715 C0.701599675,38.1027268 1.33469813,38.0922346 1.71871,37.69528 L3.18014,36.18356 C3.37280643,35.9860044 3.63814318,35.8762307 3.91406881,35.879923 C4.18999445,35.8836153 4.45229882,36.0004497 4.63961,36.20309 C5.215555,36.7802723 5.99849902,37.1030111 6.81387541,37.0993478 C7.62925179,37.0956846 8.40926434,36.765924 8.98,36.18359 C9.1726489,35.9857997 9.43811604,35.875872 9.71419748,35.8795651 C9.99027891,35.8832582 10.2527107,36.0002474 10.44,36.20312 C11.0157162,36.780715 11.7987379,37.1037373 12.6142449,37.1000678 C13.4297519,37.0963983 14.209835,36.7663425 14.78033,36.18359 C14.9728022,35.9863544 15.2377447,35.8766892 15.5133081,35.8801951 C15.7888714,35.8837011 16.0509381,36.0000714 16.23833,36.20214 C16.9084911,36.913531 17.889999,37.2426731 18.85356,37.07914 C19.5133375,36.9830688 20.1215402,36.667614 20.58012,36.18363 C20.7729679,35.9849256 21.0393047,35.8746679 21.3161723,35.8789201 C21.5930399,35.8831724 21.8558651,36.0015571 22.04252,36.20609 C22.1684168,36.3352485 22.3056691,36.4528283 22.45262,36.55741 L14.15869,49.459 C13.960682,49.7667305 13.9465838,50.1580424 14.1219333,50.4792243 C14.2972827,50.8004061 14.6340694,51.0001521 15,51 L45,51 C45.3659306,51.0001521 45.7027173,50.8004061 45.8780667,50.4792243 C46.0534162,50.1580424 46.039318,49.7667305 45.84131,49.459 L37.54578,36.55481 C37.7013214,36.4443012 37.846637,36.3200634 37.97998,36.18359 C38.1729634,35.9853256 38.4391311,35.875366 38.7157776,35.8796163 C38.9924241,35.8838665 39.2550883,36.0019508 39.44189,36.20605 C39.8881462,36.6724822 40.4764547,36.977797 41.11474,37.07421 C42.0964859,37.2444698 43.098063,36.9098179 43.78027,36.18359 C43.9729364,35.9860344 44.2382732,35.8762607 44.5141988,35.879953 C44.7901244,35.8836453 45.0524288,36.0004797 45.23974,36.20312 C45.8154562,36.780715 46.5984779,37.1037373 47.4139849,37.1000678 C48.2294919,37.0963983 49.009575,36.7663425 49.58007,36.18359 C49.7728532,35.9862532 50.0381433,35.876632 50.3139939,35.8803234 C50.5898444,35.8840147 50.8521062,36.0006953 51.03954,36.20312 C51.6153535,36.780719 52.3984509,37.1037357 53.2140294,37.1000663 C54.0296079,37.0963968 54.8097671,36.7663469 55.38036,36.18359 C55.5711167,35.9916724 55.8306442,35.8839224 56.1012368,35.884298 C56.3718294,35.8846735 56.6310568,35.9931436 56.82128,36.18559 L58.28128,37.69536 C58.5296903,37.9521446 58.8962239,38.0568981 59.2428111,37.9701608 C59.5893983,37.8834234 59.8633843,37.6183727 59.9615611,37.2748508 C60.059738,36.9313288 59.9671903,36.5615246 59.71878,36.30474 L58.26028,34.79693 C58.1780234,34.7189909 58.0911029,34.6461264 58,34.57874 L58,8.81574 C59.1951872,8.39474509 59.996103,7.26715984 60,6 L60,2 C59.998738,0.895953647 59.1040464,0.00126196688 58,-4.4408921e-16 Z M56,30 L50,30 L50,9 L56,9 L56,30 Z M40,18 L40,19 C40,19.5522847 40.4477153,20 41,20 C41.5522847,20 42,19.5522847 42,19 L42,18 L44,18 L44,19 C44,19.5522847 44.4477153,20 45,20 C45.5522847,20 46,19.5522847 46,19 L46,18 L48,18 L48,30 L38,30 L38,18 L40,18 Z M32,30 L28,30 L28,23 C28,21.8954305 28.8954305,21 30,21 C31.1045695,21 32,21.8954305 32,23 L32,30 Z M27.56641,32 L32.4336,32 L34.23389,35 L25.76611,35 L27.56641,32 Z M30,19 C27.7918366,19.0023534 26.0023534,20.7918366 26,23 L26,30 L24,30 L24,9 L36,9 L36,30 L34,30 L34,23 C33.9976466,20.7918366 32.2081634,19.0023534 30,19 Z M22,2 L25,2 L25,3 C25,3.55228475 25.4477153,4 26,4 C26.5522847,4 27,3.55228475 27,3 L27,2 L29,2 L29,3 C29,3.55228475 29.4477153,4 30,4 C30.5522847,4 31,3.55228475 31,3 L31,2 L33,2 L33,3 C33,3.55228475 33.4477153,4 34,4 C34.5522847,4 35,3.55228475 35,3 L35,2 L38,2 L38,6 C37.9994488,6.55205626 37.5520563,6.99944877 37,7 L23,7 C22.4479437,6.99944877 22.0005512,6.55205626 22,6 L22,2 Z M14,18 L14,19 C14,19.5522847 14.4477153,20 15,20 C15.5522847,20 16,19.5522847 16,19 L16,18 L18,18 L18,19 C18,19.5522847 18.4477153,20 19,20 C19.5522847,20 20,19.5522847 20,19 L20,18 L22,18 L22,30 L12,30 L12,18 L14,18 Z M4,9 L10,9 L10,30 L4,30 L4,9 Z M2,2 L4,2 L4,4.20508 C4,4.75736475 4.44771525,5.20508 5,5.20508 C5.55228475,5.20508 6,4.75736475 6,4.20508 L6,2 L8,2 L8,4.20508 C8,4.75736475 8.44771525,5.20508 9,5.20508 C9.55228475,5.20508 10,4.75736475 10,4.20508 L10,2 L12,2 L12,6 C11.9994488,6.55205626 11.5520563,6.99944877 11,7 L3,7 C2.44794374,6.99944877 2.00055123,6.55205626 2,6 L2,2 Z M18.3873515,35.1145042 C18.1119616,35.1113761 17.8495945,34.9967804 17.66015,34.79688 C17.0844338,34.219285 16.3014121,33.8962627 15.4859051,33.8999322 C14.6703981,33.9036017 13.890315,34.2336575 13.31982,34.81641 C13.1271536,35.0139656 12.8618168,35.1237393 12.5858912,35.120047 C12.3099656,35.1163547 12.0476612,34.9995203 11.86035,34.79688 C11.2845177,34.2194965 10.5015359,33.8966207 9.68609673,33.9002899 C8.87065756,33.9039591 8.09061304,34.2338679 7.52,34.81641 C7.32723681,35.0139863 7.06181536,35.1237649 6.78580737,35.1200728 C6.50979937,35.1163807 6.24740932,34.9995418 6.06,34.79688 C5.51473892,34.2453067 4.77546555,33.928729 4,33.91473 L4,32 L25.23376,32 L23.526,34.84631 C23.5047,34.82731 23.48114,34.81805 23.46045,34.79687 C22.8846114,34.2204159 22.1023419,33.8978976 21.2875537,33.9010168 C20.4727656,33.9041359 19.6929882,34.232634 19.12158,34.81348 C18.9276438,35.0090257 18.6627414,35.1176323 18.3873515,35.1145042 Z M16.83154,49 L24.5459,37 L35.4541,37 L43.16846,49 L16.83154,49 Z M53.91992,34.81641 C53.7270204,35.0135284 53.4617769,35.1229977 53.1860011,35.1193074 C52.9102253,35.1156171 52.648006,34.9990895 52.46045,34.79688 C51.8847506,34.2190657 51.1016094,33.8959002 50.2859589,33.8995699 C49.4703085,33.9032397 48.6901068,34.2334389 48.11963,34.81641 C47.9269636,35.0139656 47.6616268,35.1237393 47.3857012,35.120047 C47.1097756,35.1163547 46.8474712,34.9995203 46.66016,34.79688 C46.0842522,34.2189659 45.3008408,33.8958353 44.4849734,33.8996893 C43.6691059,33.9035433 42.8887823,34.2340608 42.31836,34.81739 C42.090402,35.0554934 41.7574393,35.1620691 41.43359,35.10059 C41.2138046,35.0666635 41.0118612,34.9596713 40.86035,34.79688 C40.285031,34.2200088 39.5029031,33.8971765 38.6881868,33.9002945 C37.8734706,33.9034126 37.0938366,34.2322221 36.52295,34.81348 C36.50861,34.82819 36.49036,34.83496 36.4754,34.84864 L34.76624,32 L56,32 L56,33.91 C55.2149667,33.9293124 54.4685437,34.2545717 53.91992,34.81641 Z M58,6 C57.9994488,6.55205626 57.5520563,6.99944877 57,7 L49,7 C48.4479437,6.99944877 48.0005512,6.55205626 48,6 L48,2 L50,2 L50,4.20508 C50,4.75736475 50.4477153,5.20508 51,5.20508 C51.5522847,5.20508 52,4.75736475 52,4.20508 L52,2 L54,2 L54,4.20508 C54,4.75736475 54.4477153,5.20508 55,5.20508 C55.5522847,5.20508 56,4.75736475 56,4.20508 L56,2 L58,2 L58,6 Z M17,26 C16.7347624,26.000069 16.4803684,25.8947343 16.292817,25.707183 C16.1052657,25.5196316 15.999931,25.2652376 16,25 L16,23 C16,22.4477153 16.4477153,22 17,22 C17.5522847,22 18,22.4477153 18,23 L18,25 C18.000069,25.2652376 17.8947343,25.5196316 17.707183,25.707183 C17.5196316,25.8947343 17.2652376,26.000069 17,26 Z M6.29281703,23.292817 C6.48036837,23.1052657 6.73476237,22.999931 7,23 C7.26523763,22.999931 7.51963163,23.1052657 7.70718297,23.292817 C7.8947343,23.4803684 8.00006899,23.7347624 8,24 L8,26 C8,26.5522847 7.55228475,27 7,27 C6.44771525,27 6,26.5522847 6,26 L6,24 C5.99993101,23.7347624 6.1052657,23.4803684 6.29281703,23.292817 Z M6.29281703,17.292817 C6.48036837,17.1052657 6.73476237,16.999931 7,17 C7.26523763,16.999931 7.51963163,17.1052657 7.70718297,17.292817 C7.8947343,17.4803684 8.00006899,17.7347624 8,18 L8,20 C8,20.5522847 7.55228475,21 7,21 C6.44771525,21 6,20.5522847 6,20 L6,18 C5.99993101,17.7347624 6.1052657,17.4803684 6.29281703,17.292817 Z M6.29281703,11.292817 C6.48036837,11.1052657 6.73476237,10.999931 7,11 C7.26523763,10.999931 7.51963163,11.1052657 7.70718297,11.292817 C7.8947343,11.4803684 8.00006899,11.7347624 8,12 L8,14 C8,14.5522847 7.55228475,15 7,15 C6.44771525,15 6,14.5522847 6,14 L6,12 C5.99993101,11.7347624 6.1052657,11.4803684 6.29281703,11.292817 Z M53.707183,26.707183 C53.5196316,26.8947343 53.2652376,27.000069 53,27 C52.7347624,27.000069 52.4803684,26.8947343 52.292817,26.707183 C52.1052657,26.5196316 51.999931,26.2652376 52,26 L52,24 C52,23.4477153 52.4477153,23 53,23 C53.5522847,23 54,23.4477153 54,24 L54,26 C54.000069,26.2652376 53.8947343,26.5196316 53.707183,26.707183 Z M53,21 C52.7347624,21.000069 52.4803684,20.8947343 52.292817,20.707183 C52.1052657,20.5196316 51.999931,20.2652376 52,20 L52,18 C52,17.4477153 52.4477153,17 53,17 C53.5522847,17 54,17.4477153 54,18 L54,20 C54.000069,20.2652376 53.8947343,20.5196316 53.707183,20.707183 C53.5196316,20.8947343 53.2652376,21.000069 53,21 Z M53.707183,14.707183 C53.5196316,14.8947343 53.2652376,15.000069 53,15 C52.7347624,15.000069 52.4803684,14.8947343 52.292817,14.707183 C52.1052657,14.5196316 51.999931,14.2652376 52,14 L52,12 C52,11.4477153 52.4477153,11 53,11 C53.5522847,11 54,11.4477153 54,12 L54,14 C54.000069,14.2652376 53.8947343,14.5196316 53.707183,14.707183 Z M27,11 C27.2652376,10.999931 27.5196316,11.1052657 27.707183,11.292817 C27.8947343,11.4803684 28.000069,11.7347624 28,12 L28,14 C28,14.5522847 27.5522847,15 27,15 C26.4477153,15 26,14.5522847 26,14 L26,12 C25.999931,11.7347624 26.1052657,11.4803684 26.292817,11.292817 C26.4803684,11.1052657 26.7347624,10.999931 27,11 Z M34,12 L34,14 C34,14.5522847 33.5522847,15 33,15 C32.4477153,15 32,14.5522847 32,14 L32,12 C32,11.4477153 32.4477153,11 33,11 C33.5522847,11 34,11.4477153 34,12 Z M43.707183,25.707183 C43.5196316,25.8947343 43.2652376,26.000069 43,26 C42.7347624,26.000069 42.4803684,25.8947343 42.292817,25.707183 C42.1052657,25.5196316 41.999931,25.2652376 42,25 L42,23 C42,22.4477153 42.4477153,22 43,22 C43.5522847,22 44,22.4477153 44,23 L44,25 C44.000069,25.2652376 43.8947343,25.5196316 43.707183,25.707183 Z" id="icon--castle"></path>
      </g>
    </g>
  </svg>
